# xmcd CD database file
#
# Track frame offsets:
#	150
#	5042
#	10750
#	16752
#	23272
#	28250
#	34327
#	40030
#	46452
#	62095
#	84522
#	101937
#	121950
#	143417
#	158162
#	177852
#	192010
#	210435
#	225595
#	243617
#	260552
#	277895
#	294882
#
# Disc length: 4114 seconds
#
# Revision: 0
# Processed by: cddbd v1.4PL0 Copyright (c) Steve Scherf et al.
# Submitted via: CDex 1.50Beta7
#
DISCID=27101017
DTITLE=Paul Meader and Robin Nolan - The Gypsy Jazz Play Along CD - Volume 6
DYEAR=2003
DGENRE=Jazz
TTITLE0=Tune up track
TTITLE1=Single note outro in Am
TTITLE2=Single note outro in C major
TTITLE3=Single note outro in D major
TTITLE4=Peche al la Mouche outro
TTITLE5=Half diminished outro in G major
TTITLE6=Chord outro in G major
TTITLE7=Chord outro in D major
TTITLE8=I Cant Give You Anything But Love
TTITLE9=Swing 39
TTITLE10=Coquette
TTITLE11=Heavy Artillery
TTITLE12=Swing de Paris
TTITLE13=Them There Eyes
TTITLE14=Sweet Sue Just You
TTITLE15=Claire de Lune
TTITLE16=Nuits St Germain des Pres (slow)
TTITLE17=Nuits St Germain des Pres (fast)
TTITLE18=Micro (slow)
TTITLE19=Micro (fast)
TTITLE20=Peche al la Mouche
TTITLE21=Babik (slow)
TTITLE22=Babik (fast)
EXTD=YEAR: 2003
EXTT0=
EXTT1=
EXTT2=
EXTT3=
EXTT4=
EXTT5=
EXTT6=
EXTT7=
EXTT8=
EXTT9=
EXTT10=
EXTT11=
EXTT12=
EXTT13=
EXTT14=
EXTT15=
EXTT16=
EXTT17=
EXTT18=
EXTT19=
EXTT20=
EXTT21=
EXTT22=
PLAYORDER=
